<svg width="24" height="24" viewBox="0 0 24 24" fill="none" xmlns="http://www.w3.org/2000/svg">
<g clip-path="url(#clip0_618_71403)">
<circle cx="12" cy="8.5" r="3" fill="black" stroke="black" stroke-width="2"/>
<path fill-rule="evenodd" clip-rule="evenodd" d="M15.5584 29.7926C16.3926 29.4177 16.0397 28.3776 15.1251 28.3776H9.37897C8.46441 28.3776 8.11154 29.4177 8.94572 29.7926C9.95813 30.2476 11.0764 30.5 12.2521 30.5C13.4277 30.5 14.546 30.2476 15.5584 29.7926ZM19.8494 18.6723C20.0996 19.2731 19.6215 19.8878 18.9707 19.8878H5.53336C4.88262 19.8878 4.40454 19.2731 4.65471 18.6723C5.91631 15.6429 8.84301 13.5204 12.2521 13.5204C15.6611 13.5204 18.5878 15.6429 19.8494 18.6723Z" fill="black"/>
</g>
<defs>
<clipPath id="clip0_618_71403">
<rect width="24" height="24" fill="white"/>
</clipPath>
</defs>
</svg>
