<svg width="40" height="40" viewBox="0 0 40 40" fill="none" xmlns="http://www.w3.org/2000/svg">
<rect x="15" y="15" width="1.75" height="2.625" rx="0.875" fill="#90949C"/>
<rect x="23.75" y="15" width="1.75" height="2.625" rx="0.875" fill="#90949C"/>
<path d="M19.8945 17.625C18.1445 18.0625 18.1446 20.6875 19.8945 21.125" stroke="#90949C" stroke-width="2" stroke-linecap="round"/>
<path d="M15 22.875C16.3125 26.375 24.1875 26.375 25.5 22.8751" stroke="#90949C" stroke-width="2" stroke-linecap="round"/>
<path fill-rule="evenodd" clip-rule="evenodd" d="M20 30.9286C26.0357 30.9286 30.9286 26.0357 30.9286 20C30.9286 13.9643 26.0357 9.07143 20 9.07143C13.9643 9.07143 9.07143 13.9643 9.07143 20C9.07143 26.0357 13.9643 30.9286 20 30.9286ZM20 33C27.1797 33 33 27.1797 33 20C33 12.8203 27.1797 7 20 7C12.8203 7 7 12.8203 7 20C7 27.1797 12.8203 33 20 33Z" fill="#90949C"/>
</svg>
