<svg width="24" height="24" viewBox="0 0 24 24" fill="none" xmlns="http://www.w3.org/2000/svg">
<path fill-rule="evenodd" clip-rule="evenodd" d="M3 9C3 6.79086 4.79086 5 7 5H17C18.4806 5 19.7733 5.8044 20.4649 7H17H7C5.89543 7 5 7.89543 5 9V13C5 14.1046 5.89543 15 7 15H10C11.1046 15 12 15.8954 12 17V17.2338L14.2628 15.8762C15.2183 15.3028 16.3116 15 17.4259 15H20.6356C20.0536 16.1846 18.835 17 17.4259 17C16.6741 17 15.9364 17.2043 15.2918 17.5911L12.2717 19.4031C11.272 20.003 10 19.2828 10 18.1169V17H7C4.79086 17 3 15.2091 3 13V9Z" fill="#2E363E"/>
<rect x="19" y="8" width="2" height="6" fill="#2E363E"/>
<rect x="23" y="10" width="2" height="6" transform="rotate(90 23 10)" fill="#2E363E"/>
</svg>
