<svg width="40" height="40" viewBox="0 0 40 40" fill="none" xmlns="http://www.w3.org/2000/svg">
<path d="M6 18H20C21.6569 18 23 19.3431 23 21V28.0769C23 29.7338 21.6569 31.0769 20 31.0769H19.7271C18.5986 31.0769 17.493 31.3952 16.5372 31.9951L12.5158 34.5193C12.1828 34.7283 11.75 34.489 11.75 34.0958V32.0769C11.75 31.5246 11.3023 31.0769 10.75 31.0769H6C4.34315 31.0769 3 29.7338 3 28.0769V21C3 19.3431 4.34315 18 6 18Z" stroke="#2E363E" stroke-width="2"/>
<path fill-rule="evenodd" clip-rule="evenodd" d="M32 4.08136C34.2091 4.08136 36 5.87222 36 8.08136V21.2133C36 23.4225 34.2091 25.2133 32 25.2133H29.7407L29.7407 28.9875C29.7407 30.204 28.3689 30.9145 27.3753 30.2127L24 27.8283V25.3797L27.7407 28.0222V25.2133C27.7407 24.1087 28.6362 23.2133 29.7407 23.2133H32C33.1046 23.2133 34 22.3179 34 21.2133V8.08136C34 6.97679 33.1046 6.08136 32 6.08136H12C10.8954 6.08136 10 6.97679 10 8.08136V18.0578H8V8.08136C8 5.87222 9.79086 4.08136 12 4.08136H32Z" fill="#2E363E"/>
</svg>
