<svg width="24" height="24" viewBox="0 0 24 24" fill="none" xmlns="http://www.w3.org/2000/svg">
<path fill-rule="evenodd" clip-rule="evenodd" d="M4.5 13C5.05228 13 5.5 12.5523 5.5 12C5.5 11.4477 5.05228 11 4.5 11C3.94772 11 3.5 11.4477 3.5 12C3.5 12.5523 3.94772 13 4.5 13ZM4.5 15C6.15685 15 7.5 13.6569 7.5 12C7.5 10.3431 6.15685 9 4.5 9C2.84315 9 1.5 10.3431 1.5 12C1.5 13.6569 2.84315 15 4.5 15Z" fill="black"/>
<path fill-rule="evenodd" clip-rule="evenodd" d="M12 13C12.5523 13 13 12.5523 13 12C13 11.4477 12.5523 11 12 11C11.4477 11 11 11.4477 11 12C11 12.5523 11.4477 13 12 13ZM12 15C13.6569 15 15 13.6569 15 12C15 10.3431 13.6569 9 12 9C10.3431 9 9 10.3431 9 12C9 13.6569 10.3431 15 12 15Z" fill="black"/>
<path fill-rule="evenodd" clip-rule="evenodd" d="M19.5 13C20.0523 13 20.5 12.5523 20.5 12C20.5 11.4477 20.0523 11 19.5 11C18.9477 11 18.5 11.4477 18.5 12C18.5 12.5523 18.9477 13 19.5 13ZM19.5 15C21.1569 15 22.5 13.6569 22.5 12C22.5 10.3431 21.1569 9 19.5 9C17.8431 9 16.5 10.3431 16.5 12C16.5 13.6569 17.8431 15 19.5 15Z" fill="black"/>
</svg>
