<svg width="24" height="24" viewBox="0 0 24 24" fill="none" xmlns="http://www.w3.org/2000/svg">
<g clip-path="url(#clip0_618_71403)">
<circle cx="12.0001" cy="8.5" r="3" fill="#2E363E" stroke="#2E363E" stroke-width="2"/>
<path fill-rule="evenodd" clip-rule="evenodd" d="M15.5584 29.7926C16.3926 29.4177 16.0397 28.3776 15.1252 28.3776H9.379C8.46444 28.3776 8.11157 29.4177 8.94575 29.7926C9.95816 30.2476 11.0764 30.5 12.2521 30.5C13.4277 30.5 14.546 30.2476 15.5584 29.7926ZM19.8494 18.6723C20.0996 19.2731 19.6215 19.8878 18.9708 19.8878H5.53339C4.88265 19.8878 4.40457 19.2731 4.65475 18.6723C5.91634 15.6429 8.84304 13.5204 12.2521 13.5204C15.6611 13.5204 18.5878 15.6429 19.8494 18.6723Z" fill="#2E363E"/>
</g>
<defs>
<clipPath id="clip0_618_71403">
<rect width="24" height="24" fill="white"/>
</clipPath>
</defs>
</svg>
