<svg width="40" height="40" viewBox="0 0 40 40" fill="none" xmlns="http://www.w3.org/2000/svg">
<path d="M14.6577 6.35298L11.6698 8.49439C10.6217 9.2456 9.98373 10.4627 10.0609 11.7499C10.7768 23.6975 17.6609 30.309 22.8482 32.9823C24.3699 33.7665 26.1469 33.701 27.7666 33.1469L31.3656 31.9158C32.6598 31.4731 33.1377 29.891 32.305 28.8059L29.8387 25.5921C29.2246 24.7918 28.1105 24.5741 27.2404 25.0844L25.634 26.0264C24.8534 26.4841 23.89 26.5918 23.1191 26.1179C19.8672 24.1188 17.7268 19.7019 16.862 16.8783C16.6368 16.1433 16.9347 15.3659 17.5467 14.9007L18.4739 14.1959C19.6306 13.3166 19.9909 11.7348 19.3292 10.4412L17.6033 7.06768C17.0463 5.97907 15.6516 5.64065 14.6577 6.35298Z" stroke="#2E363E" stroke-width="2"/>
</svg>
