<svg width="40" height="40" viewBox="0 0 40 40" fill="none" xmlns="http://www.w3.org/2000/svg">
<path fill-rule="evenodd" clip-rule="evenodd" d="M24.2618 11.6185C27.7532 15.1099 27.7532 20.7705 24.2618 24.2618C20.7705 27.7532 15.1099 27.7532 11.6185 24.2618C8.12716 20.7705 8.12716 15.1099 11.6185 11.6185C15.1099 8.12716 20.7705 8.12716 24.2618 11.6185ZM26.3472 24.942C29.9353 20.6438 29.7116 14.2399 25.6761 10.2043C21.4037 5.9319 14.4767 5.9319 10.2043 10.2043C5.9319 14.4767 5.9319 21.4037 10.2043 25.6761C14.2399 29.7117 20.6439 29.9353 24.9421 26.3471C24.9521 26.358 24.9623 26.3688 24.9729 26.3793L31.3023 32.7087C31.6907 33.0971 32.3204 33.0971 32.7088 32.7087C33.0972 32.3203 33.0972 31.6906 32.7088 31.3022L26.3794 24.9728C26.3689 24.9623 26.3581 24.952 26.3472 24.942Z" fill="#2E363E"/>
</svg>
