<svg width="24" height="24" viewBox="0 0 24 24" fill="none" xmlns="http://www.w3.org/2000/svg">
<g clip-path="url(#clip0_618_71398)">
<path fill-rule="evenodd" clip-rule="evenodd" d="M13.2208 7.69666C14.7829 9.25876 14.7829 11.7914 13.2208 13.3535C11.6587 14.9156 9.12607 14.9156 7.56397 13.3535C6.00188 11.7914 6.00188 9.25876 7.56397 7.69666C9.12607 6.13457 11.6587 6.13457 13.2208 7.69666ZM15.8892 13.997C17.4793 11.4845 17.1791 8.11944 14.9886 5.9289C12.4502 3.39049 8.33461 3.39049 5.79621 5.9289C3.2578 8.4673 3.2578 12.5829 5.79621 15.1213C8.10432 17.4294 11.7164 17.6388 14.2611 15.7495C14.3143 15.8408 14.38 15.9269 14.4583 16.0052L18.3474 19.8943C18.8355 20.3824 19.627 20.3824 20.1151 19.8943C20.6033 19.4061 20.6033 18.6146 20.1151 18.1265L16.226 14.2374C16.125 14.1363 16.0109 14.0562 15.8892 13.997Z" fill="black"/>
</g>
<defs>
<clipPath id="clip0_618_71398">
<rect width="24" height="24" fill="white"/>
</clipPath>
</defs>
</svg>
