<svg width="48" height="48" viewBox="0 0 48 48" fill="none" xmlns="http://www.w3.org/2000/svg">
<g clip-path="url(#clip0_690_71645)">
<rect width="48" height="48" fill="#4A9045"/>
<path d="M8.61243 2.14301C10.8833 4.80159 12.9814 7.61437 15.0532 10.4396C15.5398 11.1031 15.8131 11.8471 16.2419 12.538C16.369 12.7428 16.4831 12.9557 16.6907 13.0595" stroke="white" stroke-opacity="0.2" stroke-width="4" stroke-linecap="round"/>
<path d="M2.82666 14.9153C3.86294 15.2673 4.88255 15.7617 5.9318 16.0555C6.17596 16.1239 6.63862 16.1964 6.84151 16.3588C7.20087 16.6462 8.52378 16.8122 8.72158 17.2078" stroke="white" stroke-opacity="0.2" stroke-width="4" stroke-linecap="round"/>
<path d="M44.6572 3.21423C41.5145 5.52498 38.3053 7.85406 35.2926 10.3288C33.5782 11.7371 31.7644 12.9997 30.019 14.3663C29.6 14.6944 29.1162 15.1467 28.6494 15.3801" stroke="white" stroke-opacity="0.2" stroke-width="4" stroke-linecap="round"/>
<path d="M45.7777 22.2634C42.5793 22.2634 39.3869 22.7437 36.1819 22.7437C35.2177 22.7437 34.3302 22.93 33.3805 23.0282C32.8972 23.0782 32.435 23.0119 32.011 23.2239" stroke="white" stroke-opacity="0.2" stroke-width="4" stroke-linecap="round"/>
<path d="M4 45.0829C6.64544 43.4783 8.47026 40.7154 11.0434 39" stroke="white" stroke-opacity="0.2" stroke-width="4" stroke-linecap="round"/>
<path d="M43.8567 40.3522C42.4596 39.2475 40.6239 38.6739 39.419 37.3641C38.1342 35.9676 36.6019 34.7479 35.2481 33.4155C34.7319 32.9076 34.0922 32.3752 33.5317 31.9392C33.2212 31.6977 32.8232 31.5717 32.6512 31.2278" stroke="white" stroke-opacity="0.2" stroke-width="4" stroke-linecap="round"/>
<path d="M22.0345 38.4L11 35L14.8621 52H33.069L43 50.3V46.9L36.931 39.5333L30.3103 37.2667L22.0345 38.4Z" fill="#BAAC7C"/>
<path d="M26.9972 9.77105C27.2154 9.33476 27.4846 8.92018 27.6523 8.4608C27.7806 8.10941 27.8853 7.74777 28.0036 7.39267C28.1205 7.04195 28.2305 6.7066 28.3739 6.36252C28.67 5.65196 28.681 4.66802 28.3644 3.96041C28.1363 3.4504 28.0127 2.90423 27.5954 2.50775C27.3463 2.27113 26.956 2.14532 26.6554 1.99504C26.2788 1.80672 25.8347 1.86321 25.4354 1.77192C25.1773 1.71293 24.9578 1.83796 24.6924 1.86449C24.3323 1.9005 23.917 1.89167 23.5792 2.03777C23.3079 2.15509 23.0149 2.17242 22.746 2.29649C22.3418 2.48308 21.9418 2.8871 21.6328 3.1961C20.9439 3.88499 20.2342 4.57405 19.6152 5.32762C19.1601 5.88166 18.5041 6.99589 18 7.5" stroke="#443F36" stroke-width="2" stroke-linecap="round"/>
<path d="M33.235 8.66018C33.4147 8.43286 33.5873 8.18442 33.7928 7.97895C34.0033 7.76843 34.15 7.51592 34.3482 7.29297C34.6521 6.95105 34.9543 6.53646 35.179 6.13702C35.5046 5.55821 36.0967 5.11766 36.5248 4.62264C36.8249 4.27565 37.0918 4.08897 37.4885 3.87258C37.948 3.62196 38.4322 3.52931 38.9341 3.38361C39.4559 3.23211 39.9441 3.29591 40.4769 3.3219C41.3822 3.36606 42.385 3.77941 42.8909 4.62264C43.3007 5.30565 43.886 5.86023 43.7359 6.70432C43.6661 7.09684 43.6 7.47459 43.4891 7.85315C43.3298 8.3964 43.0808 8.8995 42.8909 9.42924C42.6783 10.0223 42.3029 10.5358 41.9414 11.0433C41.5009 11.662 41.1904 12.3047 40.8116 12.9612C40.4327 13.6179 40.0409 14.268 39.696 14.9455C39.5554 15.2218 39.3494 15.4442 39.2498 15.7431C39.2164 15.8432 39.1877 15.9667 39.1311 16.0517" stroke="#443F36" stroke-width="2" stroke-linecap="round"/>
<path d="M19 10.9614C19.9478 9.72633 20.5205 8.18288 21.5832 7.02771C22.0562 6.51359 22.6107 6.01835 23.2536 5.72904C23.8124 5.47757 24.3902 5.39772 24.9287 5.09853C25.2182 4.9377 25.1554 4.52448 24.8017 4.52448C24.4588 4.52448 24.4856 4.81832 24.2982 4.94325C23.9588 5.1695 25.3099 4.61813 25.5216 4.96678C25.8666 5.53496 25.5193 6.34417 25.1452 6.78303C24.3998 7.65737 23.921 8.43434 23.4795 9.49801C23.2055 10.158 22.9325 10.7998 22.3878 11.2813C22.137 11.5031 21.8897 11.7042 21.6632 11.9307C21.378 12.2159 21.439 11.1512 21.268 10.9802C21.0594 10.7716 20.6574 10.4698 20.9856 10.1238C21.8464 9.21653 22.7581 8.3069 23.5265 7.32885C23.6417 7.18233 23.6669 7.10085 23.7242 6.91478C23.8524 6.49811 23.1951 7.58708 23.1548 7.65352C22.872 8.11924 22.5706 8.56541 22.3078 9.04159C22.2659 9.11761 21.9665 9.65329 21.8797 9.65329C21.6767 9.65329 22.3493 8.15919 22.3878 8.10053C22.7016 7.62244 23.2107 7.10093 23.3195 6.55718" stroke="#DB6A65" stroke-width="2" stroke-linecap="round"/>
<path d="M33.8278 13.2474C34.7756 12.0123 35.3482 10.4689 36.411 9.31372C36.884 8.7996 37.4385 8.30436 38.0814 8.01505C38.6402 7.76358 39.2179 7.68373 39.7565 7.38454C40.046 7.22371 39.9832 6.81049 39.6294 6.81049C39.2865 6.81049 39.3134 7.10433 39.126 7.22926C38.7866 7.45551 40.1377 6.90414 40.3493 7.25279C40.6943 7.82097 40.347 8.63018 39.9729 9.06905C39.2276 9.94338 38.7488 10.7204 38.3072 11.784C38.0333 12.444 37.7603 13.0858 37.2156 13.5673C36.9648 13.7891 36.7174 13.9902 36.491 14.2167C36.2058 14.5019 36.2667 13.4372 36.0957 13.2662C35.8871 13.0576 35.4851 12.7559 35.8134 12.4098C36.6742 11.5025 37.5858 10.5929 38.3543 9.61486C38.4694 9.46834 38.4947 9.38686 38.5519 9.20079C38.6801 8.78412 38.0229 9.87309 37.9826 9.93953C37.6998 10.4053 37.3983 10.8514 37.1356 11.3276C37.0937 11.4036 36.7942 11.9393 36.7074 11.9393C36.5044 11.9393 37.1771 10.4452 37.2156 10.3865C37.5293 9.90845 38.0385 9.38694 38.1473 8.84319" stroke="#DB6A65" stroke-width="2" stroke-linecap="round"/>
<path d="M19 9.60629C19.2863 8.34647 20.242 7.2967 20.901 6.21845C21.428 5.35605 22.0032 4.55459 22.8113 3.91283C23.5593 3.31881 24.1423 3 25.1405 3C25.7522 3 26.1935 3.24646 26.3874 3.82814C26.8782 5.30074 26.6346 6.91934 25.8133 8.21351C25.1918 9.19288 24.4376 10.0952 23.7806 11.0508C23.5503 11.3858 23.0654 11.8118 23.0654 12.2319" stroke="white" stroke-width="2" stroke-linecap="round"/>
<path d="M32.8055 12.2318C33.1379 11.4621 33.7028 10.6345 34.2266 9.98266C34.8075 9.25973 35.2799 8.46249 35.8593 7.73822C36.6667 6.72898 37.9249 5.36846 39.2801 5.12205C40.1038 4.97228 41.1259 5.33078 41.6516 6.00666C41.9754 6.42297 41.896 7.21478 41.788 7.70058C41.6645 8.25634 41.3724 8.78209 41.0869 9.26745C40.912 9.56479 40.6368 9.8236 40.4705 10.1191C40.2801 10.4577 40.1055 10.8135 39.8353 11.0837C39.5107 11.4083 39.1728 11.9181 38.946 12.3212C38.7141 12.7336 38.3476 13.2582 38.3108 13.7375C38.2888 14.0236 38.0297 14.28 37.9673 14.5609C37.9118 14.8107 37.8873 15.0144 37.8873 15.2809" stroke="white" stroke-width="2" stroke-linecap="round"/>
<path d="M39.6986 27.8869C39.8854 27.2406 39.6986 23.408 39.3439 22.4314C39.1652 21.9393 38.9631 21.3341 38.9036 20.8149C38.8162 20.0529 38.2282 19.1762 37.9128 18.4688C37.3489 17.2035 35.9551 16.1863 34.8086 15.3496L34.745 15.3032C33.224 14.1928 31.5555 13.2647 29.8771 12.379C28.3232 11.559 26.1948 11.097 24.4099 11.0208C22.2321 10.9278 20.1854 11.1342 18.1721 11.902C16.9612 12.3637 16.0051 12.9111 15.0165 13.6924C14.1162 14.4039 13.1046 15.2868 12.4602 16.2125C11.6811 17.3317 10.7912 18.3414 10.0629 19.4959C9.56558 20.2844 9.06624 21.0782 8.69308 21.9262C7.10289 25.5401 8.41406 30.0775 10.9497 33.0393C11.8281 34.0653 12.9202 34.8826 13.9769 35.7446L13.9861 35.7522C14.7181 36.3494 15.3308 36.8492 16.2457 37.1927C18.3119 37.9685 20.3335 38.5297 22.5508 38.8204C23.7218 38.9739 24.8365 39 26.0121 39C26.8529 39 27.6526 38.7145 28.495 38.6969C29.7017 38.6717 30.8645 38.3463 32.0542 38.1974C33.2012 38.0538 34.0977 37.4389 34.9101 36.6932C35.9908 35.7014 37.1066 34.57 38.0229 33.4434C38.7881 32.5027 39.0627 31.1891 39.2888 30.059C39.4331 29.338 39.4936 28.5959 39.6986 27.8869Z" fill="white" stroke="#3F3939" stroke-width="2" stroke-linecap="round"/>
<path d="M12.9276 16.6815C13.5972 15.9169 14.2433 14.7729 15.1289 14.3511C15.6957 14 16.4634 12.9957 16.9777 12.7928C18.4949 12.1942 19.9748 12.0136 21.593 12.0136C22.9129 12.0136 24.2638 11.9312 25.5699 12.1723C26.3213 12.3111 27.4354 12.1872 28.1169 12.598C28.6919 12.9445 29.4996 12.7737 30.112 13.1391C30.8867 13.6013 31.612 14.0258 32.2202 14.7119C32.9083 15.4883 33.4619 15.9975 33.6832 17.0783C33.964 18.4488 35 19.6631 35 21.104V21.1372C35 23.8013 35 26.4983 33.7098 28.867C33.1085 29.971 32.5088 31.9159 31.2958 32.4094C30.7266 32.6409 30.2624 33.2256 29.713 33.4988C29.0351 33.8358 28.2567 33.8926 27.5517 34.1192C26.7003 34.3929 25.8316 34.4313 24.9713 34.6387C24.2593 34.8103 23.6559 34.9994 22.9031 34.9994C21.9234 34.9994 20.3478 35.0432 19.5314 34.3789C18.9547 33.9097 17.9805 33.5593 17.3368 33.2102C16.5047 32.7588 15.5402 32.3228 14.8895 31.558C14.1024 30.633 13.3329 29.85 12.6882 28.7804C12.2417 28.0395 11.464 26.4902 11.418 25.5915C11.4009 25.2572 11.2311 24.9985 11.1853 24.6753C11.1259 24.2566 11.1518 23.8352 11.0855 23.4127C10.8932 22.1869 11.0249 20.6067 11.4845 19.4735C11.8681 18.5277 12.2543 17.4504 12.9276 16.6815Z" fill="#FFC250" stroke="#FFC250" stroke-width="2" stroke-linecap="round"/>
<path d="M19.0749 30.1884C18.949 29.3909 18.9855 28.5962 18.9093 27.7959L21.0441 26.4573L23.4997 27.6539C23.5977 27.703 23.547 28.0583 23.547 28.164C23.547 28.5479 23.4571 28.9341 23.384 29.3102C23.1591 30.467 23.3186 31.7907 22.5532 32.7649C22.1244 33.3106 21.6727 33.1757 21.0441 33.1408C20.7438 33.1241 20.3851 32.9111 20.1239 32.7649C19.8695 32.6224 19.6451 32.369 19.5035 32.1181C19.1656 31.5196 19.1799 30.8531 19.0749 30.1884Z" fill="#DE544E"/>
<path d="M29.8882 18.0946C29.1647 18.5321 28.5826 19.0688 27.9532 19.6247C27.4301 20.0868 26.8924 20.5327 26.3758 21.0024C26.1424 21.2145 25.9383 21.5342 25.6554 21.6885C25.5499 21.7461 25.3829 21.8882 25.5082 21.9856C26.0889 22.4373 26.7175 22.812 27.3275 23.2187C27.942 23.6284 28.475 24.1177 28.9996 24.6357C29.4192 25.0501 29.9082 25.4095 30.3615 25.7873C30.5425 25.9382 30.6695 26.1753 30.882 26.2815" stroke="#443F36" stroke-width="2" stroke-linecap="round"/>
<path d="M31.8759 21.6439C31.3366 21.5625 30.8004 21.703 30.2616 21.5966C29.7405 21.4936 29.1823 21.556 28.6526 21.5492C27.7077 21.5371 26.7645 21.4546 25.8185 21.4546" stroke="#443F36" stroke-width="2" stroke-linecap="round"/>
<path d="M13.5144 18C14.7186 18.9032 15.9304 19.7841 17.2056 20.5923C17.4248 20.7312 17.6182 20.8737 17.8471 20.9814C18.0656 21.0842 17.7988 21.1626 17.6815 21.2653C17.1679 21.7146 16.7174 22.2258 16.1487 22.6088C15.5791 22.9924 15.0051 23.3143 14.495 23.7892C14.1448 24.1153 13.7456 24.3981 13.3514 24.67C13.1653 24.7983 12.8607 24.9389 12.7572 25.1458" stroke="#443F36" stroke-width="2" stroke-linecap="round"/>
<path d="M12 21.1233C13.1722 21.2908 14.3397 21.3246 15.5177 21.4072C16.1459 21.4513 16.7625 21.6438 17.3949 21.6438" stroke="#443F36" stroke-width="2" stroke-linecap="round"/>
<path d="M21.8906 23.0636C21.2821 22.6699 20.6243 22.8032 20.2343 23.4316C19.869 24.0201 21.0182 24.4264 21.37 24.4359C21.6357 24.4431 22.028 24.2964 22.1956 24.081C22.3481 23.8848 22.1282 23.4584 22.0326 23.2897C21.8742 23.0102 21.5558 22.8345 21.2333 22.7849C20.9667 22.7439 20.8123 22.8101 20.8968 23.0636" stroke="#443F36" stroke-width="2" stroke-linecap="round"/>
<path d="M20.8021 24.2466C20.9859 24.7222 20.9664 25.0821 20.9441 25.5612C20.9347 25.7638 20.833 26.1708 20.6391 26.2815C19.9337 26.6847 19.3456 27.1334 18.4938 27.1334C18.2237 27.1334 18.0627 27.1387 17.8681 26.9441C17.674 26.7499 17.4749 26.5709 17.3002 26.3525C17.0948 26.0957 16.9216 25.6266 16.9216 25.2878" stroke="#443F36" stroke-width="2" stroke-linecap="round"/>
<path d="M21.4647 25.0511C21.3708 25.6149 21.3757 26.5552 21.9853 26.86C22.46 27.0973 23.0706 27.1334 23.5943 27.1334C24.2737 27.1334 24.729 26.9039 25.2874 26.4708C25.5328 26.2805 25.7712 26.0255 25.7712 25.7137" stroke="#443F36" stroke-width="2" stroke-linecap="round"/>
<path d="M10.0654 36.9294C11.0781 38.7524 12.4953 40.1625 13.1565 42.1849C12.772 42.3131 11.9317 43.0989 11.5316 43.0989C10.9828 43.0989 10.3963 43.0314 9.8686 43.1878C9.37495 43.334 8.3437 43.0094 7.96442 42.699C6.10293 41.176 4.43867 39.2925 2.93102 37.4498C1.13871 35.2592 -0.520772 32.8492 -2.55303 30.8169C-3.8547 29.5153 -4.07448 28.1911 -3.98117 26.4182C-3.93681 25.5754 -2.62654 25.2408 -2.02621 25.1044C-1.16895 24.9095 -0.136816 25.0472 0.734862 25.0472C1.17455 25.0472 1.78441 24.9341 2.18839 25.1361C4.6426 26.3632 5.91084 29.4192 7.24083 31.6992C7.7029 32.4913 8.18839 33.3742 8.56106 34.2127C8.99616 35.1917 9.5523 36.0058 10.0654 36.9294Z" fill="#FFC250" stroke="#3F3939" stroke-width="2" stroke-linecap="round"/>
<path d="M7.71186 33.3243C6.97603 36.8293 3.10777 37.6908 0.39939 38.1509C0.0918767 38.7558 1.62144 39.6675 1.93812 40.007C2.69524 40.8188 3.5202 41.6004 4.20663 42.4763C6.00707 44.7738 8.04345 46.9666 10.1173 48.954C10.6484 49.463 11.2683 49.8814 11.7258 50.4845C11.8805 50.6885 12.4205 50.3718 12.6581 50.3261C13.9763 50.0726 15.1713 49.3878 16.4452 48.969C16.6546 48.9001 17.3422 48.7664 17.2935 48.4798C17.2535 48.2449 17.1804 47.8816 16.9828 47.7561C16.8577 47.6767 16.6248 47.1802 16.5467 47.0303C16.2914 46.5399 16.0569 46.0229 15.8179 45.5228C14.6805 43.1428 13.4381 40.8347 12.2758 38.4623C11.8116 37.5148 11.056 36.693 10.631 35.7772C10.3938 35.2662 10.1545 34.8558 9.83765 34.4219C9.59271 34.0865 9.41771 33.4244 9.15835 33.1648C8.86364 32.8699 8.62302 32.0562 8.22261 31.9121C8.14081 31.8827 7.75031 33.1412 7.71186 33.3243Z" fill="#BAAC7C" stroke="#3F3939" stroke-width="2" stroke-linecap="round"/>
<path d="M36.7854 14.8311C37.9181 16.3037 40.5 19 39.8396 19.4836C39.4814 19.2448 39.4679 18.8751 39.2017 18.5475C38.8693 18.1384 38.3755 17.8188 37.9537 17.4867C37.3163 16.9849 36.5764 16.61 35.9464 16.0896C34.6198 14.9937 32.7015 14.7193 31.1033 14.3042C29.7709 13.9581 28.4298 13.6565 27.061 13.493C25.7218 13.3329 24.4206 13.0561 23.0638 13.0561C20.9672 13.0561 18.8178 12.9048 16.7473 13.2745C15.4788 13.5011 14.0342 13.8599 13.083 14.7895C12.603 15.2585 12.0278 15.6867 11.4605 16.0514C11.1291 16.2645 10.7397 16.5749 10.4725 16.8627C10.0894 17.2752 9.45463 17.5029 9.16895 18.0171C9.03559 18.2572 9.13775 17.7707 9.13775 17.6739C9.13775 17.6057 9.1038 17.4911 9.06148 17.4382C8.96194 17.3137 9.00895 17.07 9.02681 16.9181C9.1188 16.1362 9.55421 15.4523 10.0391 14.8519C10.6328 14.1169 11.2505 13.397 11.8072 12.6332C12.1845 12.1155 12.8213 11.7772 13.3256 11.399C13.875 10.987 14.5112 10.6671 15.0972 10.3104C15.6331 9.98422 16.2577 9.75838 16.8756 9.67256C17.7619 9.54946 18.6015 9.2609 19.4965 9.17334C20.4388 9.08116 21.3584 9 22.3046 9C23.3504 9 24.3412 9.08371 25.3762 9.18721C26.373 9.28689 27.3465 9.28152 28.3229 9.53042C28.8681 9.66937 29.3854 9.90251 29.9315 10.0331C30.5311 10.1765 31.171 10.3621 31.7169 10.6502C32.414 11.0181 33.124 11.3882 33.8074 11.7804C35.0664 12.5027 35.9212 13.7078 36.7854 14.8311Z" fill="#553403" stroke="#553403" stroke-width="2" stroke-linecap="round"/>
<path d="M14.7254 7.3768C15.3348 7.15356 15.5 6.99994 16.5 7C16.615 7.04843 17.0862 7.12627 17.208 7.16451C17.571 7.27838 17.9279 7.38484 18.2782 7.53495C18.6304 7.6859 18.8591 8.06873 19.0884 8.35164C19.7644 9.18583 20.1311 10.4217 20.0069 11.4928C19.9442 12.0335 19.9503 12.6643 19.6625 13.15C19.3616 13.6578 18.9078 13.9787 18.3995 14.2592C16.3629 15.3828 13.5137 14.413 12.3728 12.4481C11.7051 11.2982 12.0285 9.87773 12.6046 8.76974C13.0066 7.99671 13.9525 7.65996 14.7254 7.3768Z" fill="#AEE7E9" stroke="#553403" stroke-width="2" stroke-linecap="round"/>
<path d="M27.7254 7.3768C28.3348 7.15356 28.5 6.99994 29.5 7C29.615 7.04843 30.0862 7.12627 30.208 7.16451C30.571 7.27838 30.9279 7.38484 31.2782 7.53495C31.6304 7.6859 31.8591 8.06873 32.0884 8.35164C32.7644 9.18583 33.1311 10.4217 33.0069 11.4928C32.9442 12.0335 32.9503 12.6643 32.6625 13.15C32.3616 13.6578 31.9078 13.9787 31.3995 14.2592C29.3629 15.3828 26.5137 14.413 25.3728 12.4481C24.7051 11.2982 25.0285 9.87773 25.6046 8.76974C26.0066 7.99671 26.9525 7.65996 27.7254 7.3768Z" fill="#AEE7E9" stroke="#553403" stroke-width="2" stroke-linecap="round"/>
<path d="M15.2564 9.56769C15.08 9.6046 14.9321 9.6722 14.8013 9.79801C14.7365 9.86027 14.62 9.91623 14.582 9.99226" stroke="white" stroke-width="2" stroke-linecap="round"/>
<path d="M28.2564 9.56769C28.08 9.6046 27.9321 9.6722 27.8013 9.79801C27.7365 9.86027 27.62 9.91623 27.582 9.99226" stroke="white" stroke-width="2" stroke-linecap="round"/>
<path d="M32.8507 38.4553C37.8646 39.6213 42.1011 44.7906 44.2898 49.1681" stroke="#443F36" stroke-width="2" stroke-linecap="round"/>
</g>
<defs>
<clipPath id="clip0_690_71645">
<rect width="48" height="48" fill="white"/>
</clipPath>
</defs>
</svg>
