<svg width="32" height="32" viewBox="0 0 32 32" fill="none" xmlns="http://www.w3.org/2000/svg">
<circle cx="16" cy="16" r="10" stroke="#2E363E" stroke-width="2"/>
<path d="M13.5996 12.1797V20H11.7197V12.1797H13.5996ZM18.0168 20H16.2819L16.2927 18.5498H18.0168C18.3749 18.5498 18.6774 18.4639 18.9245 18.292C19.1752 18.1201 19.3649 17.8641 19.4938 17.5239C19.6263 17.1802 19.6926 16.7576 19.6926 16.2563V15.918C19.6926 15.542 19.655 15.2126 19.5798 14.9297C19.5082 14.6432 19.4007 14.4051 19.2575 14.2153C19.1143 14.022 18.9353 13.877 18.7204 13.7803C18.5091 13.6836 18.2657 13.6353 17.9899 13.6353H16.2497V12.1797H17.9899C18.5199 12.1797 19.0051 12.271 19.4455 12.4536C19.8895 12.6326 20.2727 12.8905 20.5949 13.2271C20.9208 13.5601 21.1714 13.9557 21.3469 14.4141C21.5259 14.8688 21.6154 15.3737 21.6154 15.9287V16.2563C21.6154 16.8078 21.5259 17.3127 21.3469 17.771C21.1714 18.2293 20.9226 18.625 20.6003 18.958C20.278 19.291 19.8967 19.5488 19.4562 19.7314C19.0194 19.9105 18.5396 20 18.0168 20ZM17.3615 12.1797V20H15.4763V12.1797H17.3615Z" fill="#2E363E"/>
</svg>
