<svg width="24" height="24" viewBox="0 0 24 24" fill="none" xmlns="http://www.w3.org/2000/svg">
<g clip-path="url(#clip0_618_71347)">
<circle cx="12" cy="8.5" r="3" stroke="black" stroke-width="2"/>
<path fill-rule="evenodd" clip-rule="evenodd" d="M13.5652 28.3776C13.4979 28.3776 13.4308 28.3846 13.3647 28.397C13.0027 28.4647 12.6308 28.5 12.2521 28.5C11.8733 28.5 11.5014 28.4647 11.1394 28.397C11.0733 28.3846 11.0062 28.3776 10.9389 28.3776H9.37897C8.46441 28.3776 8.11154 29.4177 8.94572 29.7926C9.95813 30.2476 11.0764 30.5 12.2521 30.5C13.4277 30.5 14.546 30.2476 15.5584 29.7926C16.3926 29.4177 16.0397 28.3776 15.1251 28.3776H13.5652ZM5.61172 19.8878C6.04226 19.8878 6.41758 19.6086 6.59766 19.2175C7.61219 17.0142 9.78765 15.5204 12.2521 15.5204C14.7165 15.5204 16.8919 17.0142 17.9064 19.2175C18.0865 19.6086 18.4618 19.8878 18.8924 19.8878H18.9707C19.6215 19.8878 20.0996 19.2731 19.8494 18.6723C18.5878 15.6429 15.6611 13.5204 12.2521 13.5204C8.84301 13.5204 5.91631 15.6429 4.65471 18.6723C4.40454 19.2731 4.88262 19.8878 5.53336 19.8878H5.61172Z" fill="black"/>
</g>
<defs>
<clipPath id="clip0_618_71347">
<rect width="24" height="24" fill="white"/>
</clipPath>
</defs>
</svg>
