<svg width="24" height="24" viewBox="0 0 24 24" fill="none" xmlns="http://www.w3.org/2000/svg">
<circle cx="12" cy="12" r="3" stroke="#2E363E" stroke-width="2"/>
<path fill-rule="evenodd" clip-rule="evenodd" d="M10.4769 3C9.56949 3 8.77582 3.61084 8.54351 4.48797L8.37522 5.12342L7.20679 5.95064L6.52153 5.78892C5.67712 5.58965 4.80053 5.95753 4.35124 6.69974L3.31352 8.41396C2.82558 9.22 2.9664 10.2573 3.65158 10.9041L4.12538 11.3513V12.7337L4.90834 13.3558L4.12538 12.7337L3.43409 13.6038C2.88146 14.2994 2.85386 15.2761 3.36635 16.0017L4.37728 17.4332C4.84795 18.0996 5.67624 18.4133 6.4703 18.2259L7.20679 18.0521L8.37522 18.8793L8.54351 19.5148C8.77582 20.3919 9.56949 21.0028 10.4769 21.0028H11.9981V19.0028H10.4769L10.3086 18.3673C10.1886 17.9143 9.91334 17.5178 9.53086 17.247L8.36243 16.4198C7.89409 16.0882 7.30591 15.9738 6.74743 16.1056L6.01094 16.2794L5 14.848L5.69129 13.9779C5.97238 13.6241 6.12538 13.1856 6.12538 12.7337V11.3513C6.12538 10.8009 5.89853 10.2748 5.49826 9.89693L5.02445 9.44968L6.06217 7.73545L6.74743 7.89717C7.30591 8.02896 7.89409 7.91453 8.36243 7.58297L9.53086 6.75575C9.91334 6.48497 10.1886 6.08847 10.3086 5.63545L10.4769 5H11.9981V3H10.4769ZM13.5195 3C14.4269 3 15.2205 3.61084 15.4528 4.48797L15.6211 5.12342L16.7896 5.95064L17.4748 5.78892C18.3192 5.58965 19.1958 5.95753 19.6451 6.69974L20.6828 8.41396C21.1708 9.22 21.0299 10.2573 20.3448 10.9041L19.871 11.3513V12.7337L20.5623 13.6038C21.1149 14.2994 21.1425 15.2761 20.63 16.0017L19.6191 17.4332C19.1484 18.0996 18.3201 18.4133 17.526 18.2259L16.7896 18.0521L15.6211 18.8793L15.4528 19.5148C15.2205 20.3919 14.4269 21.0028 13.5195 21.0028H11.9982V19.0028H13.5195L13.6878 18.3673C13.8078 17.9143 14.083 17.5178 14.4655 17.247L15.6339 16.4198C16.1023 16.0882 16.6904 15.9738 17.2489 16.1056L17.9854 16.2794L18.9963 14.848L18.3051 13.9779C18.024 13.6241 17.871 13.1856 17.871 12.7337V11.3513C17.871 10.8009 18.0978 10.2748 18.4981 9.89693L18.9719 9.44968L17.9342 7.73545L17.2489 7.89717C16.6904 8.02896 16.1023 7.91453 15.6339 7.58297L14.4655 6.75575C14.083 6.48497 13.8078 6.08847 13.6878 5.63546L13.5195 5H11.9982V3H13.5195Z" fill="#2E363E"/>
</svg>
