<svg width="48" height="48" viewBox="0 0 48 48" fill="none" xmlns="http://www.w3.org/2000/svg">
<rect width="48" height="48" fill="#FAE100"/>
<path d="M16.7112 11.708C15.5413 11.9529 14.4573 12.5647 13.8184 13.5231" stroke="#FCAF3C" stroke-width="3" stroke-linecap="round"/>
<path d="M29.7007 11.7647C30.3839 12.1015 31.1273 12.2792 31.8057 12.6092C32.2097 12.8058 32.5687 13.0888 32.9591 13.3088C33.2323 13.4628 33.6268 13.7825 33.7847 14.0588C33.831 14.1398 33.9345 14.2787 34.0116 14.3172" stroke="#FCAF3C" stroke-width="3" stroke-linecap="round"/>
<path d="M19.0749 13.023C20.5162 12.5567 21.9505 12.3195 23.4222 12.0041C24.5 11.9566 25.7489 12.3314 26.5 12.4566C27.8379 12.6796 28.7638 13.4369 30.0593 13.839C32.0905 14.4694 34.0928 15.4639 35.6183 16.9894C36.1468 17.5179 36.6127 17.9989 36.9982 18.6413C37.4648 19.419 37.6548 20.3228 37.9329 21.1735C38.4721 22.8227 38.5 24.281 38.5 25.9567C38.5 27.3415 37.814 29.3544 37.4433 30.689C37.2903 31.2398 37.101 31.7199 36.9339 32.2518C36.7343 32.8867 36.0662 33.4957 35.6331 33.9828C35.1835 34.4887 34.7304 35.0637 34.1939 35.4863C33.3456 36.1547 32.2284 36.5253 31.2265 36.886C30.5916 37.1146 29.9836 37.4685 29.3768 37.7614C28.8755 38.0034 28.3275 38.1117 27.8239 38.3548C27.0238 38.7411 25.6946 38.7109 24.807 38.7109C23.8254 38.7109 22.8557 38.5337 21.8791 38.4488C20.835 38.358 19.6724 38.2334 18.6545 37.979C17.9212 37.7956 17.1094 37.4177 16.4586 37.0393C16.0621 36.8087 15.6277 36.6746 15.2321 36.4409C14.9442 36.2707 14.7026 36.0376 14.4111 35.8919C13.1554 35.264 12.2242 34.3016 11.3151 33.241C9.82364 31.5009 9.00053 29.3364 9.00053 27.0193C9.00053 25.6653 8.9686 24.0389 9.40113 22.7413C9.74053 21.7231 10.3237 20.8323 10.692 19.8381C11.5199 17.6026 13.5887 15.7397 15.608 14.5858C16.7088 13.9567 17.8709 13.4125 19.0749 13.023Z" fill="#FCAF3C" stroke="#3F3939" stroke-width="3" stroke-linecap="round"/>
<path d="M12.9175 16.6767C12.5016 16.1328 11.9555 15.3386 11.8542 14.6292C11.7617 13.9818 11.8736 13.3789 11.9877 12.7102C12.111 11.9883 12.5565 11.3898 13.056 10.8902C13.4074 10.5388 13.7176 10.4456 14.1638 10.2473C14.7511 9.98629 15.5419 10.089 16.1718 10.089C16.6562 10.089 17.2034 10.1039 17.5912 10.4055C18.2524 10.9198 18.4372 11.7509 19.1491 12.2256" stroke="#3F3939" stroke-width="3" stroke-linecap="round"/>
<path d="M28 12.4926C28.4579 11.4321 29.1722 10 30.4481 10C31.3236 10 32.3846 10.1033 33.1237 10.5737C33.4962 10.8107 33.9082 10.8368 34.192 11.2018C34.4814 11.5738 34.654 12.0859 34.924 12.4234C35.1784 12.7414 35.3623 15.1321 34.9438 15.3414" stroke="#3F3939" stroke-width="3" stroke-linecap="round"/>
<path d="M15 21.3081C16.6715 21.3081 18.3486 21.2201 20.0179 21.2201" stroke="#3F3939" stroke-width="3" stroke-linecap="round"/>
<path d="M26.4443 21C27.9841 21 29.5239 21 31.0636 21C31.2746 21 31.4746 21.044 31.6823 21.044C31.8462 21.044 32.0258 21.0177 32.1665 21.088" stroke="#3F3939" stroke-width="3" stroke-linecap="round"/>
<path d="M18.4817 24.416C18.2859 24.416 18.0201 24.3687 17.8712 24.5341C17.782 24.6332 17.7828 24.7981 17.8821 24.8974C18.0776 25.0929 18.4257 24.6917 18.0878 24.6917" stroke="#3F3939" stroke-width="2" stroke-linecap="round"/>
<path d="M29.9038 24.2191C29.6429 24.2256 29.4312 24.2788 29.4312 24.5648C29.4312 24.7998 29.7391 24.8423 29.9016 24.7508C30.1138 24.6314 30.0919 24.4466 29.9235 24.2782C29.7474 24.1021 29.6496 24.2084 29.4705 24.2979" stroke="#3F3939" stroke-width="2" stroke-linecap="round"/>
<path d="M21.309 27.1483C22.009 27.0912 22.7456 26.8975 23.4412 27.0156C23.6859 27.0156 24.172 27.0035 24.4158 27.0156C24.7481 27.0323 25.0986 27.0284 25.4257 27.0917C26.0573 27.214 26.674 27.4002 27.248 27.6872C27.6619 27.8941 28.1377 28.1776 28.3113 28.6354C28.4126 28.9024 28.4725 29.1664 28.5108 29.4498C28.5477 29.7226 28.634 30.0245 28.5952 30.3013C28.5089 30.916 28.2604 31.5184 27.8126 31.9663C27.3251 32.4537 26.6081 32.4554 25.9666 32.4075C25.6395 32.383 25.2912 32.3422 24.9907 32.2008C24.8078 32.1147 24.5224 32.0363 24.3952 31.8737C24.3027 31.7556 24.2059 31.6504 24.1381 31.5148C24.0767 31.392 24.0462 31.2572 23.9859 31.1343C23.901 30.9613 23.8532 30.7743 23.7957 30.5903C23.7918 30.5779 23.7712 30.4591 23.7679 30.5009C23.7601 30.5985 23.6855 30.6855 23.6568 30.7785C23.6235 30.887 23.583 30.9878 23.5314 31.0891C23.4807 31.1885 23.3826 31.256 23.3092 31.34C23.0988 31.5812 22.8073 31.7545 22.5719 31.9694C22.2509 32.2625 21.8768 32.2788 21.4653 32.3376C21.1248 32.3862 20.688 32.3061 20.3742 32.1627C20.0444 32.012 19.8356 31.77 19.6173 31.4881C19.3233 31.1083 19.057 30.6113 19.0024 30.1275C18.9589 29.7428 19.0562 29.3926 19.1505 29.0241C19.232 28.7054 19.4142 28.4157 19.5885 28.1417C19.6964 27.9723 19.8877 27.8745 20.0431 27.7571C20.1268 27.6938 20.2352 27.6498 20.328 27.5987C20.4008 27.5587 20.4554 27.5045 20.5223 27.4599C20.7666 27.297 21.0096 27.1728 21.309 27.1483Z" fill="white" stroke="#3F3939" stroke-width="2" stroke-linecap="round"/>
<path d="M24.1359 26.5879C23.5088 26.6039 23 26.7342 23 27.4348C23 28.0105 23.74 28.1144 24.1307 27.8904C24.6407 27.598 24.588 27.1451 24.1833 26.7326C23.7599 26.3011 23.525 26.5616 23.0947 26.7809" stroke="#3F3939" stroke-width="2" stroke-linecap="round"/>
</svg>
