<svg width="40" height="40" viewBox="0 0 40 40" fill="none" xmlns="http://www.w3.org/2000/svg">
<mask id="path-1-inside-1_690_71557" fill="white">
<path fill-rule="evenodd" clip-rule="evenodd" d="M20.0001 4C17.4228 4 15.3334 6.08934 15.3334 8.66667V12H8C6.89543 12 6 12.8954 6 14V20H34V14C34 12.8954 33.1046 12 32 12H24.6668V8.66667C24.6668 6.08934 22.5774 4 20.0001 4Z"/>
</mask>
<path d="M15.3334 12V14H17.3334V12H15.3334ZM6 20H4V22H6V20ZM34 20V22H36V20H34ZM24.6668 12H22.6668V14H24.6668V12ZM17.3334 8.66667C17.3334 7.19391 18.5273 6 20.0001 6V2C16.3182 2 13.3334 4.98477 13.3334 8.66667H17.3334ZM17.3334 12V8.66667H13.3334V12H17.3334ZM8 14H15.3334V10H8V14ZM8 14V10C5.79086 10 4 11.7909 4 14H8ZM8 20V14H4V20H8ZM34 18H6V22H34V18ZM32 14V20H36V14H32ZM32 14H36C36 11.7909 34.2091 10 32 10V14ZM24.6668 14H32V10H24.6668V14ZM22.6668 8.66667V12H26.6668V8.66667H22.6668ZM20.0001 6C21.4728 6 22.6668 7.19391 22.6668 8.66667H26.6668C26.6668 4.98477 23.682 2 20.0001 2V6Z" fill="#2E363E" mask="url(#path-1-inside-1_690_71557)"/>
<path d="M33 19H7V35H16.4545L21.7727 29.4615L27.0909 35H33V19Z" stroke="#2E363E" stroke-width="2"/>
</svg>
