<svg width="40" height="40" viewBox="0 0 40 40" fill="none" xmlns="http://www.w3.org/2000/svg">
<rect x="14.5" y="14" width="2" height="3" rx="1" fill="#2E363E"/>
<rect x="24.5" y="14" width="2" height="3" rx="1" fill="#2E363E"/>
<path d="M20.0937 17C18.0938 17.5 18.0938 20.5 20.0937 21" stroke="#2E363E" stroke-width="2" stroke-linecap="round"/>
<path d="M14.5 23C16 27 25 27 26.5 23.0002" stroke="#2E363E" stroke-width="2" stroke-linecap="round"/>
<path fill-rule="evenodd" clip-rule="evenodd" d="M32.9286 19.6058C32.9286 26.5426 27.3499 32.1402 20.5 32.1402C18.854 32.1402 17.2815 31.817 15.8421 31.2297C15.5754 31.0748 15.2426 31.0402 14.9343 31.1644L11.1785 32.6776V30.794C11.1786 30.7941 11.1786 30.7941 11.1786 30.7941V28.9953V27.8969C9.24583 25.6894 8.07143 22.7885 8.07143 19.6058C8.07143 12.669 13.6501 7.07143 20.5 7.07143C27.3499 7.07143 32.9286 12.669 32.9286 19.6058ZM9.10711 28.6417C7.16116 26.1557 6 23.0173 6 19.6058C6 11.5392 12.4919 5 20.5 5C28.5081 5 35 11.5392 35 19.6058C35 27.6724 28.5081 34.2116 20.5 34.2116C18.6703 34.2116 16.9197 33.8702 15.3076 33.2472L11.2413 34.8856C10.2203 35.297 9.10711 34.5454 9.10711 33.4446V28.6417Z" fill="#2E363E"/>
</svg>
