<svg width="24" height="24" viewBox="0 0 24 24" fill="none" xmlns="http://www.w3.org/2000/svg">
<path fill-rule="evenodd" clip-rule="evenodd" d="M21 9.10049C18.6967 6.567 15.5147 5 12 5C8.48528 5 5.3033 6.567 3 9.1005L4.35224 10.5879C6.32603 8.35454 9.06228 7 12 7C14.9377 7 17.674 8.35454 19.6477 10.5879L21 9.10049Z" fill="black"/>
<path fill-rule="evenodd" clip-rule="evenodd" d="M18 12.4004C16.4644 10.7114 14.3431 9.66669 12 9.66669C9.65683 9.66669 7.53553 10.7113 6 12.4003L7.35272 13.8882C8.55899 12.4982 10.2355 11.6667 12 11.6667C13.7645 11.6667 15.441 12.4983 16.6472 13.8883L18 12.4004Z" fill="black"/>
<path fill-rule="evenodd" clip-rule="evenodd" d="M15 15.7001L12 19L9 15.7002C9.76777 14.8557 10.8284 14.3333 12 14.3333C13.1716 14.3333 14.2322 14.8556 15 15.7001Z" fill="black"/>
</svg>
