<svg width="40" height="40" viewBox="0 0 40 40" fill="none" xmlns="http://www.w3.org/2000/svg">
<path d="M14 13.2103L33.5 6.40793V31.5921L14 24.7897L14 13.2103Z" stroke="#2E363E" stroke-width="2"/>
<mask id="path-2-inside-1_703_71721" fill="white">
<path d="M5 13C5 12.4477 5.44772 12 6 12H15V26H6C5.44772 26 5 25.5523 5 25V13Z"/>
</mask>
<path d="M5 13C5 12.4477 5.44772 12 6 12H15V26H6C5.44772 26 5 25.5523 5 25V13Z" stroke="#2E363E" stroke-width="4" mask="url(#path-2-inside-1_703_71721)"/>
<path d="M14 23V29" stroke="#2E363E" stroke-width="2"/>
<path d="M20 27V29" stroke="#2E363E" stroke-width="2"/>
<path d="M20 29C20 30.6569 18.6569 32 17 32C15.3431 32 14 30.6569 14 29" stroke="#2E363E" stroke-width="2"/>
</svg>
