<svg width="48" height="48" viewBox="0 0 48 48" fill="none" xmlns="http://www.w3.org/2000/svg">
<rect width="48" height="48" fill="#FAE100"/>
<path d="M27.1011 13.2157C28.3741 13.0947 30.4917 13.2228 31.7492 13C32.1126 13 31.9871 14.9902 31.9429 15.3349C31.8272 16.237 31.7492 17.1757 31.7492 18.0904C31.7492 18.5876 31.761 19.0685 31.6496 19.5571C31.5047 20.1925 31.6209 20.8364 31.5002 21.4714C31.1289 23.4254 30.7275 25.3408 30.233 27.2682C29.9239 28.473 29.1788 29.6613 28.584 30.7625C28.0488 31.7535 27.1502 32.7283 26.4149 33.5881C25.4842 34.6765 24.4809 35.5082 23.3936 36.4353C23.1604 36.6342 22.496 37.1156 22.2427 36.9745C21.8735 36.769 21.4749 35.9902 21.2024 35.6803C20.8126 35.2372 20.5236 34.76 20.1012 34.3484C19.805 34.0597 19.3099 33.1826 19.3099 32.7631C19.3099 32.5656 20.144 32.4255 20.317 32.4126C20.8521 32.3725 21.2572 31.7982 21.6451 31.5066C22.191 31.0962 22.643 30.303 22.9842 29.7164C23.3893 29.0197 23.7626 28.2454 23.9581 27.4624C24.0412 27.1291 24.0536 26.7995 24.1794 26.4702C24.2675 26.2395 24.4285 26.1035 24.1739 26.1035H22.8735H20.0072C19.5852 26.1035 17.5338 26.3681 17.412 25.9525C17.2761 25.4892 17.4259 24.9763 17.2847 24.5289C17.0111 23.6624 17.008 22.6898 17.008 21.7896C17.008 20.5425 16.99 19.2942 17.008 18.0473C17.0272 16.7223 17.341 15.4013 17.3068 14.0677C17.3013 13.8544 17.0497 13.1941 17.3677 13.1941H18.8341C19.8211 13.1941 20.8115 13.0835 21.7889 13.0971C23.5731 13.1219 25.3028 13.3867 27.1011 13.2157Z" fill="white" stroke="white" stroke-width="3" stroke-linecap="round"/>
</svg>
