<svg width="24" height="24" viewBox="0 0 24 24" fill="none" xmlns="http://www.w3.org/2000/svg">
<g clip-path="url(#clip0_616_71333)">
<path fill-rule="evenodd" clip-rule="evenodd" d="M13.5744 7.34311C15.3317 9.10047 15.3317 11.9497 13.5744 13.7071C11.817 15.4644 8.96778 15.4644 7.21042 13.7071C5.45306 11.9497 5.45306 9.10047 7.21042 7.34311C8.96778 5.58575 11.817 5.58575 13.5744 7.34311ZM15.6399 14.3624C17.5044 11.8195 17.2872 8.22754 14.9886 5.9289C12.4502 3.39049 8.33461 3.39049 5.79621 5.9289C3.2578 8.4673 3.2578 12.5829 5.79621 15.1213C8.09485 17.4199 11.6868 17.637 14.2298 15.7726C14.2462 15.7917 14.2634 15.8103 14.2815 15.8284L18.5241 20.071C18.9147 20.4616 19.5478 20.4616 19.9383 20.071C20.3289 19.6805 20.3289 19.0473 19.9383 18.6568L15.6957 14.4142C15.6776 14.3961 15.659 14.3789 15.6399 14.3624Z" fill="black"/>
</g>
<defs>
<clipPath id="clip0_616_71333">
<rect width="24" height="24" fill="white"/>
</clipPath>
</defs>
</svg>
