<svg width="32" height="32" viewBox="0 0 32 32" fill="none" xmlns="http://www.w3.org/2000/svg">
<rect x="7" y="6" width="19" height="19" stroke="#2E363E" stroke-width="2"/>
<rect x="4" y="8" width="2" height="2" fill="#2E363E"/>
<rect x="4" y="14" width="2" height="2" fill="#2E363E"/>
<rect x="4" y="20" width="2" height="2" fill="#2E363E"/>
<path d="M18.3771 13C18.3771 14.0803 17.4711 15 16.2986 15C15.1262 15 14.2201 14.0803 14.2201 13C14.2201 11.9196 15.1262 11 16.2986 11C17.4711 11 18.3771 11.9196 18.3771 13Z" stroke="#2E363E" stroke-width="2"/>
<path fill-rule="evenodd" clip-rule="evenodd" d="M21.47 22C21.0171 22 20.6315 21.6895 20.4394 21.2793C19.7434 19.793 18.2364 18.7653 16.4926 18.7653C14.7489 18.7653 13.2418 19.793 12.5458 21.2793C12.3538 21.6895 11.9681 22 11.5152 22H11.4308C10.8079 22 10.3329 21.4318 10.5559 20.8502C11.4722 18.4611 13.7847 16.7653 16.4926 16.7653C19.2006 16.7653 21.5131 18.4611 22.4293 20.8502C22.6523 21.4318 22.1774 22 21.5545 22H21.47Z" fill="#2E363E"/>
</svg>
