<svg width="24" height="24" viewBox="0 0 24 24" fill="none" xmlns="http://www.w3.org/2000/svg">
<circle cx="12.5" cy="12.5" r="6.75" stroke="#FF4343" stroke-opacity="0.7" stroke-width="1.5"/>
<path d="M13.2555 8.46875L13.1149 14.4863H11.9078L11.7614 8.46875H13.2555ZM11.7203 16.332C11.7203 16.1172 11.7906 15.9375 11.9313 15.793C12.0758 15.6445 12.275 15.5703 12.5289 15.5703C12.7789 15.5703 12.9762 15.6445 13.1207 15.793C13.2653 15.9375 13.3375 16.1172 13.3375 16.332C13.3375 16.5391 13.2653 16.7168 13.1207 16.8652C12.9762 17.0098 12.7789 17.082 12.5289 17.082C12.275 17.082 12.0758 17.0098 11.9313 16.8652C11.7906 16.7168 11.7203 16.5391 11.7203 16.332Z" fill="#FF4343" fill-opacity="0.7"/>
</svg>
