<svg width="24" height="24" viewBox="0 0 24 24" fill="none" xmlns="http://www.w3.org/2000/svg">
<g clip-path="url(#clip0_618_71347)">
<circle cx="12" cy="8.5" r="3" stroke="#2E363E" stroke-width="2"/>
<path fill-rule="evenodd" clip-rule="evenodd" d="M13.5653 28.3776C13.4979 28.3776 13.4309 28.3846 13.3647 28.397C13.0028 28.4647 12.6308 28.5 12.2521 28.5C11.8733 28.5 11.5014 28.4647 11.1395 28.397C11.0733 28.3846 11.0062 28.3776 10.9389 28.3776H9.379C8.46444 28.3776 8.11157 29.4177 8.94575 29.7926C9.95816 30.2476 11.0764 30.5 12.2521 30.5C13.4277 30.5 14.546 30.2476 15.5584 29.7926C16.3926 29.4177 16.0397 28.3776 15.1252 28.3776H13.5653ZM5.61175 19.8878C6.04229 19.8878 6.41761 19.6086 6.59769 19.2175C7.61222 17.0142 9.78768 15.5204 12.2521 15.5204C14.7165 15.5204 16.8919 17.0142 17.9065 19.2175C18.0866 19.6086 18.4619 19.8878 18.8924 19.8878H18.9708C19.6215 19.8878 20.0996 19.2731 19.8494 18.6723C18.5878 15.6429 15.6611 13.5204 12.2521 13.5204C8.84304 13.5204 5.91634 15.6429 4.65475 18.6723C4.40457 19.2731 4.88265 19.8878 5.53339 19.8878H5.61175Z" fill="#2E363E"/>
</g>
<defs>
<clipPath id="clip0_618_71347">
<rect width="24" height="24" fill="white"/>
</clipPath>
</defs>
</svg>
